<?xml version="1.0" encoding="utf-8"?>
<svg xmlns="http://www.w3.org/2000/svg"
	xmlns:xlink="http://www.w3.org/1999/xlink"
	width="5px" height="7px" viewBox="0 0 5 7">
<path fillRule="evenodd" d="M 4 4C 4 4 4 5 4 5 4 5 3 5 3 5 3 5 3 6 3 6 3 6 2 6 2 6 2 6 2 7 2 7 2 7-0 7-0 7-0 7-0 6-0 6-0 6 1 6 1 6 1 6 1 5 1 5 1 5 2 5 2 5 2 5 2 4 2 4 2 4 2 3 2 3 2 3 2 2 2 2 2 2 1 2 1 2 1 2 1 1 1 1 1 1-0 1-0 1-0 1-0-0-0-0-0-0 2-0 2-0 2-0 2 1 2 1 2 1 3 1 3 1 3 1 3 2 3 2 3 2 4 2 4 2 4 2 4 3 4 3 4 3 5 3 5 3 5 3 5 4 5 4 5 4 4 4 4 4Z" fill="rgb(211,211,211)"/></svg>