<?xml version="1.0" encoding="utf-8"?>
<svg xmlns="http://www.w3.org/2000/svg"
	xmlns:xlink="http://www.w3.org/1999/xlink"
	width="10px" height="10px" viewBox="0 0 10 10">
<path fillRule="evenodd" d="M 9 3C 9 3 9 4 9 4 9 4 8 4 8 4 8 4 8 6 8 6 8 6 7 6 7 6 7 6 7 7 7 7 7 7 6 7 6 7 6 7 6 8 6 8 6 8 6 9 6 9 6 9 5 9 5 9 5 9 5 10 5 10 5 10 4 10 4 10 4 10 4 9 4 9 4 9 3 9 3 9 3 9 3 8 3 8 3 8 2 8 2 8 2 8 2 7 2 7 2 7 1 7 1 7 1 7 1 6 1 6 1 6-0 6-0 6-0 6-0 4-0 4-0 4 1 4 1 4 1 4 1 3 1 3 1 3 3 3 3 3 3 3 3 4 3 4 3 4 5 4 5 4 5 4 5 3 5 3 5 3 6 3 6 3 6 3 6 1 6 1 6 1 7 1 7 1 7 1 7-0 7-0 7-0 9-0 9-0 9-0 9 1 9 1 9 1 10 1 10 1 10 1 10 3 10 3 10 3 9 3 9 3Z" fill="rgb(61,53,47)"/></svg>