<svg xmlns="http://www.w3.org/2000/svg" width="10.75" height="10.406" viewBox="0 0 10.75 10.406">
  <defs>
    <style>
      .cls-1 {
        fill: #ff3d00;
        fill-rule: evenodd;
      }
    </style>
  </defs>
  <path id="delete.svg" class="cls-1" d="M55,22c-0.078.1-1.848,1.526-3.873,3.141C53.084,27.593,55,30,55,30s-2.5-1.974-5-3.962C47.5,28.026,45,30,45,30s1.916-2.407,3.873-4.859C46.848,23.527,45.079,22.1,45,22a1.557,1.557,0,0,1,0-2,1.479,1.479,0,0,1,2,0c0.077,0.077,1.43,1.765,3,3.73,1.57-1.965,2.923-3.653,3-3.73a1.479,1.479,0,0,1,2,0A1.557,1.557,0,0,1,55,22Z" transform="translate(-44.625 -19.594)"/>
</svg>
