<svg xmlns="http://www.w3.org/2000/svg" width="11" height="11" viewBox="0 0 11 11">
  <defs>
    <style>
      .cls-1 {
        fill: #c3c3c3;
        fill-rule: evenodd;
      }
    </style>
  </defs>
  <path id="i.svg" class="cls-1" d="M129.1,157h1.8a0.1,0.1,0,0,1,.1.1v0.8a0.1,0.1,0,0,1-.1.1h-1.8a0.1,0.1,0,0,1-.1-0.1v-0.8A0.1,0.1,0,0,1,129.1,157Zm-1,7h3.8a0.1,0.1,0,0,1,.1.1v0.8a0.1,0.1,0,0,1-.1.1h-3.8a0.1,0.1,0,0,1-.1-0.1v-0.8A0.1,0.1,0,0,1,128.1,164Zm0.9-5h1.9a0.1,0.1,0,0,1,.1.1V164h-2v-5Zm-0.9,0H129v1h-0.9a0.1,0.1,0,0,1-.1-0.1v-0.8A0.1,0.1,0,0,1,128.1,159Zm-2.6-3h8a1.5,1.5,0,0,1,1.5,1.5v8a1.5,1.5,0,0,1-1.5,1.5h-8a1.5,1.5,0,0,1-1.5-1.5v-8A1.5,1.5,0,0,1,125.5,156Z" transform="translate(-124 -156)"/>
</svg>
