<?xml version="1.0" encoding="utf-8"?>
<svg xmlns="http://www.w3.org/2000/svg"
	xmlns:xlink="http://www.w3.org/1999/xlink"
	width="5px" height="4px" viewBox="0 0 5 4">
<path fillRule="evenodd" d="M 4 1.32C 4 1.32 4 0.32 4 0.32 4 0.32 5 0.32 5 0.32 5 0.32 5 1.32 5 1.32 5 1.32 4 1.32 4 1.32ZM 3 2.32C 3 2.32 3 1.32 3 1.32 3 1.32 4 1.32 4 1.32 4 1.32 4 2.32 4 2.32 4 2.32 3 2.32 3 2.32ZM 2 3.32C 2 3.32 2 2.32 2 2.32 2 2.32 3 2.32 3 2.32 3 2.32 3 3.32 3 3.32 3 3.32 2 3.32 2 3.32ZM 1 1.32C 1 1.32 2 1.32 2 1.32 2 1.32 2 2.32 2 2.32 2 2.32 1 2.32 1 2.32 1 2.32 1 1.32 1 1.32ZM-0 0.32C-0 0.32 1 0.32 1 0.32 1 0.32 1 1.32 1 1.32 1 1.32-0 1.32-0 1.32-0 1.32-0 0.32-0 0.32Z" fill="rgb(55,47,39)"/></svg>