<svg id="phone.svg" xmlns="http://www.w3.org/2000/svg" width="14" height="14" viewBox="0 0 14 14">
  <defs>
    <style>
      .cls-1 {
        fill: #c67200;
      }

      .cls-1, .cls-2 {
        fill-rule: evenodd;
      }

      .cls-2 {
        fill: #373028;
      }
    </style>
  </defs>
  <path id="orange" class="cls-1" d="M470,141v1h-3v-1h-2v-1h-1v-1h-1v-1h-1v-1h-1v-1h-1v-6h3v1h1v3h-2v1h1v2h1v1h2v1h2v-1h3v3h-1Z" transform="translate(-459 -129)"/>
  <path id="brown" class="cls-2" d="M472,141v1h-1v1h-4v-1h3v-1h1v-3h-3v-1h2v-1h1v1h1v2h1v2h-1Zm-6-2v-1h2v1h-2Zm-2-2h-1v-2h-1v-1h2v2h1v1h1v1h-2v-1Zm-1-7h-3v-1h4v2h-1v-1Zm-2,7h1v1h1v1h1v1h1v1h-2v-1h-1v-1h-1v-1h-1v-2h1v1Zm6,5h-2v-1h2v1Zm-8-6v-6h1v6h-1Zm6-5v3h-1v-3h1Z" transform="translate(-459 -129)"/>
</svg>
