<svg id="alfa-hover" xmlns="http://www.w3.org/2000/svg" width="14.6" height="22.47" viewBox="0 0 14.6 22.47"><defs><style>.cls-1{fill:#e70020;}</style></defs><title>alfa-hover</title><path id="line" class="cls-1" d="M0.3,19.42h14a0.3,0.3,0,0,1,.3.3v2.46a0.3,0.3,0,0,1-.3.3H0.3a0.3,0.3,0,0,1-.3-0.3V19.72a0.3,0.3,0,0,1,.3-0.3h0Z" transform="translate(0 -0.01)"/><path class="cls-1" d="M5.07,1.63L0.6,13.79h0a0.29,0.29,0,0,0,.16.37L3,15a0.29,0.29,0,0,0,.37-0.18h0l0.92-2.59h5.93l1,2.69a0.36,0.36,0,0,0,.1.18,0.45,0.45,0,0,0,.27,0l2.41-1a0.32,0.32,0,0,0,.1-0.23,1.1,1.1,0,0,0-.16-0.39l-4.45-12A2.56,2.56,0,0,0,8.2.15a2.9,2.9,0,0,0-1.81,0A2.65,2.65,0,0,0,5.07,1.63Zm0.14,8,2.12-6,2,5.92Z" transform="translate(0 -0.01)"/><path class="cls-1" d="M5.07,1.63L0.6,13.79h0a0.29,0.29,0,0,0,.16.37L3,15a0.29,0.29,0,0,0,.37-0.18h0l0.92-2.59h5.93l1,2.69a0.36,0.36,0,0,0,.1.18,0.45,0.45,0,0,0,.27,0l2.41-1a0.32,0.32,0,0,0,.1-0.23,1.1,1.1,0,0,0-.16-0.39l-4.45-12A2.56,2.56,0,0,0,8.2.15a2.9,2.9,0,0,0-1.81,0A2.65,2.65,0,0,0,5.07,1.63Zm0.14,8,2.12-6,2,5.92Z" transform="translate(0 -0.01)"/></svg>