<svg id="amex-hover" xmlns="http://www.w3.org/2000/svg" width="48.36" height="31.54" viewBox="0 0 48.36 31.54"><defs><style>.cls-1{fill:#37a6d3;}.cls-2{fill:#fff;}</style></defs><title>amex-hover</title><path id="background" class="cls-1" d="M2,0H46.36a1.94,1.94,0,0,1,2,1.86V29.69a1.94,1.94,0,0,1-2,1.86H2a1.94,1.94,0,0,1-2-1.86V1.87A1.94,1.94,0,0,1,2,0Z" transform="translate(-0.01 -0.01)"/><path id="text" class="cls-2" d="M6,12.07L5.17,9.86,4.32,12.07m19.89-1a1.15,1.15,0,0,1-.62.11H22.15V10H23.6a1.28,1.28,0,0,1,.6.1,0.49,0.49,0,0,1,.26.47A0.54,0.54,0,0,1,24.2,11.05Zm10.53,1L33.87,9.86,33,12.07h1.74Zm-19.09,2.3H14.3V10.12l-1.83,4.26h-1.1L9.63,10.11v4.26H7L6.49,13H3.87L3.38,14.37H2L4.27,8.84H6.14L8.27,14V8.84h2.07L12,12.57,13.5,8.84h2.15v5.53h0Zm4.64,0H16.14V8.84h4.15v1.32H17.53v1h2.69v0.93H17.53v1h2.76v1.33h0Zm5.57-4A1.5,1.5,0,0,1,25,11.82a1.45,1.45,0,0,1,.62.45,1.53,1.53,0,0,1,.27,1v1.12H24.51V13.62a1.61,1.61,0,0,0-.18-1,1.22,1.22,0,0,0-.92-0.26H22.16v2H20.8V8.84h2.89a2.89,2.89,0,0,1,1.52.37,1.25,1.25,0,0,1,.63,1.18h0Zm1.88,4H26.36V8.86h1.37v5.51h0Zm14.84,0h-2l-2.2-4v4H35.65L35.16,13H32.55l-0.48,1.38H30.7a2.36,2.36,0,0,1-2.5-2.71,3,3,0,0,1,.68-2.14,2.55,2.55,0,0,1,1.91-.68h1.12V10.1H30.82a1.2,1.2,0,0,0-1,.32,1.77,1.77,0,0,0-.36,1.21,1.86,1.86,0,0,0,.35,1.25,1.2,1.2,0,0,0,.88.28h0.46l1.77-4.31h1.89L37,14V8.84h1.84l2.31,3.83V8.84h1.38v5.52h0Zm-40.83,1h2.4l0.48-1.18H5.72l0.48,1.18h4.23v-0.9l0.38,0.91H13l0.38-.92v0.92h9.79V13.39h0.2c0.14,0,.18,0,0.18.26v1.69h5V14.88a4.27,4.27,0,0,0,2,.45h2.28l0.49-1.18h1.08l0.48,1.18h4.41V14.21L40,15.33h3.55V7.9H40V8.78L39.52,7.9H35.93V8.78L35.49,7.9H30.64a4.32,4.32,0,0,0-2.1.43V7.9H25.66V8.34a2.06,2.06,0,0,0-1.42-.43H12.74L11.92,9.82,11.08,7.9H7.23V8.78L6.81,7.9H3.53L1.75,11.62v3.71h0ZM46.31,19H44.16a0.86,0.86,0,0,0-.51.1,0.33,0.33,0,0,0-.18.32,0.4,0.4,0,0,0,.27.4,1.43,1.43,0,0,0,.48.06l0.68,0a1.63,1.63,0,0,1,1.29.37,0.75,0.75,0,0,1,.12.13m0,2.05a1.77,1.77,0,0,1-1.59.78h-2.6V21.88h2.59a0.7,0.7,0,0,0,.51-0.13,0.3,0.3,0,0,0,.15-0.26,0.44,0.44,0,0,0-.15-0.35A0.63,0.63,0,0,0,44.79,21c-1.18,0-2.65,0-2.65-1.65a1.66,1.66,0,0,1,1.61-1.72h2.56V16.73H44a2.59,2.59,0,0,0-1.57.43V16.73H39a2.36,2.36,0,0,0-1.5.43V16.73H31.62v0.43a3.23,3.23,0,0,0-1.69-.43H25.87v0.43a2.79,2.79,0,0,0-1.75-.43H19.6l-1,1.14-1-1.14H11v7.42h6.44L18.53,23l1,1.15h4.09V22.4H24a4.76,4.76,0,0,0,1.85-.31v2h3.28V22.21h0.16c0.21,0,.23,0,0.23.22v1.71h10a2.9,2.9,0,0,0,1.71-.47v0.47h3.25a4.31,4.31,0,0,0,1.84-.34V22.42h0Zm-5.1-2.12a1.49,1.49,0,0,1,.38,1.13,1.7,1.7,0,0,1-2,1.78H37.06V21.89h2.56a0.73,0.73,0,0,0,.51-0.13,0.33,0.33,0,0,0,.15-0.27,0.46,0.46,0,0,0-.15-0.35A0.65,0.65,0,0,0,39.68,21c-1.17,0-2.64,0-2.64-1.65a1.66,1.66,0,0,1,1.6-1.72h3V19H39a0.83,0.83,0,0,0-.5.13,0.3,0.3,0,0,0-.19.31,0.37,0.37,0,0,0,.27.37,1.42,1.42,0,0,0,.49.06l0.67,0a2,2,0,0,1,1.43.43h0Zm-11-.4a1.18,1.18,0,0,1-.62.11H28.18V18.85h1.49a1.22,1.22,0,0,1,.6.1,0.4,0.4,0,0,1,.26.41,0.65,0.65,0,0,1-.27.54h0ZM31,20.64a1.37,1.37,0,0,1,.61.45,1.57,1.57,0,0,1,.21,1v1.17H30.57V22.44a1.67,1.67,0,0,0-.19-1.07,1.2,1.2,0,0,0-.92-0.24H28.18v2.09H26.84V17.66h2.91a3.06,3.06,0,0,1,1.51.25,1.47,1.47,0,0,1,.64,1.31A1.49,1.49,0,0,1,31,20.63h0Zm1.38-3h4.16V19H33.73v1h2.75v0.91H33.73v1h2.83V23.2H32.4V17.65h0Zm-8.2,2.58H22.6V18.89h1.61a0.64,0.64,0,0,1,.77.65,0.68,0.68,0,0,1-.65.7H24.2Zm-2.93,2.38-1.93-2.17,1.92-2.1v4.26h0Zm-5-.74h-3v-1h2.75V20H13.33V19h3l1.37,1.48Zm10-2.34c0,1.48-1.09,1.78-2.18,1.78H22.6v1.89H20.08l-1.54-1.86-1.6,1.86H12V17.66h5l1.54,1.87,1.6-1.87h4.07a1.84,1.84,0,0,1,2.11,1.88h0Z" transform="translate(-0.01 -0.01)"/></svg>