<svg id="bank" xmlns="http://www.w3.org/2000/svg" width="23.57" height="22" viewBox="0 0 23.57 22"><defs><style>.cls-1{fill:#cbc7b4;}</style></defs><title>bank</title><path class="cls-1" d="M11.87,0L23.65,4.71V6.29H22.08a0.73,0.73,0,0,1-.25.55,0.84,0.84,0,0,1-.6.23H2.5a0.85,0.85,0,0,1-.6-0.23,0.73,0.73,0,0,1-.25-0.55H0.08V4.71ZM3.23,7.86H6.37v9.43H7.94V7.86h3.14v9.43h1.57V7.86H15.8v9.43h1.57V7.86h3.14v9.43h0.72a0.85,0.85,0,0,1,.6.23,0.73,0.73,0,0,1,.25.55v0.79H1.66V18.07a0.73,0.73,0,0,1,.25-0.55,0.84,0.84,0,0,1,.6-0.23H3.23V7.86h0ZM22.81,19.64a0.85,0.85,0,0,1,.6.23,0.73,0.73,0,0,1,.25.55V22H0.08V20.43a0.73,0.73,0,0,1,.25-0.55,0.84,0.84,0,0,1,.6-0.23H22.81Z" transform="translate(-0.08)"/></svg>