<svg id="contact-hover" xmlns="http://www.w3.org/2000/svg" width="58.26" height="31.57" viewBox="0 0 58.26 31.57"><defs><style>.cls-1{fill:#f9f9f9;}.cls-2{fill:#1882f1;}.cls-3{fill:#0952ba;}.cls-4{fill:#191617;}</style></defs><title>contact-hover</title><path id="background" class="cls-1" d="M2.42,0H55.88a2.4,2.4,0,0,1,2.4,2.4V29.19a2.4,2.4,0,0,1-2.4,2.4H2.42A2.4,2.4,0,0,1,0,29.19V2.41A2.4,2.4,0,0,1,2.42,0Z" transform="translate(-0.02 -0.01)"/><polygon class="cls-2" points="53.97 18.09 32.48 18.09 28.72 22.89 51.55 22.86 53.97 18.09"/><polygon class="cls-3" points="6.04 6.63 3.62 11.4 25.04 11.4 28.81 6.6 6.04 6.63"/><polygon class="cls-3" points="30.41 6.59 28.05 11.4 32.95 11.4 29.68 18.09 27.33 22.9 27.32 22.92 25.22 27.21 28.56 22.92 28.58 22.89 32.31 18.09 41.28 6.58 30.41 6.59"/><polygon class="cls-2" points="29.02 6.58 29 6.6 25.27 11.4 16.31 22.92 27.12 22.9 29.47 18.09 24.63 18.09 27.91 11.4 30.25 6.59 30.26 6.58 32.36 2.28 29.02 6.58"/><path id="t2" class="cls-4" d="M53.2,13.45l0.67-1.31h-3.8l-0.64,1.29h1.15l-2,3.77H50l2-3.8Z" transform="translate(-0.02 -0.01)"/><path id="c2" class="cls-4" d="M47.8,12.55L47,13.72a0.72,0.72,0,0,0-.67-0.38,2.64,2.64,0,0,0-2.07,1.29c-0.48.9-.42,1.48,0,1.5A3.57,3.57,0,0,0,46,15.71L45.37,17s-0.05.27-1.29,0.27-1.82-.52-1.68-1.42A5.52,5.52,0,0,1,45,12.49,3.38,3.38,0,0,1,47.8,12.55Z" transform="translate(-0.02 -0.01)"/><path id="a" class="cls-4" d="M39.61,12.14L35.19,17.2h1.57l1-1,1.12,0-0.14.93h1.4l0.84-5.06H39.61Zm-0.53,3-0.5,0,0.61-.74Z" transform="translate(-0.02 -0.01)"/><path id="t1" class="cls-4" d="M31.38,13.45l0.67-1.31h-3.8l-0.64,1.29h1.15l-2,3.77h1.4l2-3.8Z" transform="translate(-0.02 -0.01)"/><path id="n" class="cls-4" d="M17.81,12.14L15.18,17.2h1.34l1.34-2.54L17.76,17.2H19.1l2.74-5.06h-1.4l-1.26,2.49,0.08-2.49H17.81Z" transform="translate(-0.02 -0.01)"/><path id="o" class="cls-4" d="M13.48,12.14a3.1,3.1,0,0,0-2.29.76A5.08,5.08,0,0,0,9.39,16c-0.17,1.18,1.68,1.7,2.88.9a4.94,4.94,0,0,0,2.41-3C14.88,12.77,14.65,12.36,13.48,12.14ZM11.13,16c-0.33,0-.45-0.68.17-1.5s1.15-1.31,1.71-1.26,0.39,0.82-.17,1.7A2,2,0,0,1,11.13,16h0Z" transform="translate(-0.02 -0.01)"/><path id="c1" class="cls-4" d="M9.08,12.44L8.3,13.61a0.72,0.72,0,0,0-.67-0.38,2.64,2.64,0,0,0-2.07,1.29c-0.48.9-.42,1.48,0,1.5a3.57,3.57,0,0,0,1.71-.41L6.65,16.92s-0.06.27-1.29,0.27-1.82-.52-1.68-1.42a5.52,5.52,0,0,1,2.63-3.39A3.38,3.38,0,0,1,9.08,12.44Z" transform="translate(-0.02 -0.01)"/></svg>