<svg id="liqpay" xmlns="http://www.w3.org/2000/svg" width="60.17" height="16.17" viewBox="0 0 60.17 16.17"><defs><style>.cls-1{fill:#cbc7b4;}</style></defs><title>liqpay</title><path id="_" data-name=" " class="cls-1" d="M52.64,1.4a7.4,7.4,0,1,1-7.26,7.53s0-.09,0-0.13A7.33,7.33,0,0,1,52.64,1.4ZM55.1,6.27a4.16,4.16,0,0,0-1.9-.45V5.4H52.39V5.82a3.72,3.72,0,0,0-2.06.57,1.53,1.53,0,0,0-.69,1.27A1.36,1.36,0,0,0,50,8.6a2,2,0,0,0,.82.56,12.61,12.61,0,0,0,1.59.41v1.5a1.41,1.41,0,0,1-.56-0.33,1.38,1.38,0,0,1-.27-0.61l-2.24.2a2.2,2.2,0,0,0,.3.72,2.16,2.16,0,0,0,.57.56,2.92,2.92,0,0,0,.88.4,6.52,6.52,0,0,0,1.33.2V13h0.81v-0.8a5.61,5.61,0,0,0,1.15-.14,3.1,3.1,0,0,0,.89-0.38,2.3,2.3,0,0,0,.69-0.65,1.46,1.46,0,0,0,.27-0.85,1.54,1.54,0,0,0-.75-1.31,7,7,0,0,0-2.26-.72V6.94a1.4,1.4,0,0,1,.41.24,1.57,1.57,0,0,1,.28.42L56,7.34A1.82,1.82,0,0,0,55.1,6.27ZM52.39,8a1.12,1.12,0,0,1-.49-0.23,0.44,0.44,0,0,1-.14-0.33,0.42,0.42,0,0,1,.14-0.31,1.13,1.13,0,0,1,.49-0.22V8h0ZM53.2,9.75a1.88,1.88,0,0,1,.73.31,0.5,0.5,0,0,1,.19.37,0.54,0.54,0,0,1-.22.42,1.46,1.46,0,0,1-.69.27V9.75Z" transform="translate(-0.01 -0.02)"/><path id="y" class="cls-1" d="M35.86,3.71h1.82a14.91,14.91,0,0,1,1.59,3.7,21.54,21.54,0,0,1,.68,3.47s0.27,0.38.45,0S41,8.65,41.53,7.18s0.91-3.23.91-3.23V3.71h1.82a50.89,50.89,0,0,1-1.82,5.78c-1.13,2.93-1.13,3-1.13,3L39.71,16H38.13s-0.48,0-.23-0.46,1.36-2.31,1.36-2.31h0A1.25,1.25,0,0,0,39,12.25C38.69,11.55,36.71,4.23,35.86,3.71Z" transform="translate(-0.01 -0.02)"/><path class="cls-1" d="M31.64,3.47H31.55c-3.07,0-3.86.46-3.86,0.46l0.45,1.62a6.05,6.05,0,0,1,2.5-.69c1.23,0,2.69.33,2.72,1.39a6.7,6.7,0,0,1,0,1.15,6.22,6.22,0,0,0-2.72-.46c-1.86,0-3.19.91-3.18,2.77S28.1,13,31.09,13s3.63-.69,3.63-0.69v-6A2.94,2.94,0,0,0,31.64,3.47ZM31.55,11.8c-2,0-2.51-.53-2.5-1.85S29.72,8.1,31.32,8.1a2.34,2.34,0,0,1,2,.69v2.08h0S33.52,11.77,31.55,11.8Z" transform="translate(-0.01 -0.02)"/><path class="cls-1" d="M24.74,4.4c-2.2-2-6.81-.23-6.81-0.23L17.7,4.4s0,11.08,0,11.32a0.21,0.21,0,0,0,.23.23h1.14c0.52,0,.48-0.23.45-0.23s0-3.47,0-3.47,0.87,0.68,3.63.69S26.93,6.42,24.74,4.4Zm-3.4,6.93c-1.86-.07-1.82-0.92-1.82-0.92V5.33S24,3.45,24.06,7.41,23.19,11.41,21.33,11.34Z" transform="translate(-0.01 -0.02)"/><path class="cls-1" d="M16.11,15.72c0-.25,0-11.32,0-11.32l-0.23-.23s-4.61-1.79-6.81.23S7.9,13,10.67,13s3.63-.69,3.63-0.69,0,3.47,0,3.47S14.23,16,14.75,16h1.13A0.21,0.21,0,0,0,16.11,15.72ZM14.3,10.41s0,0.85-1.82.92-2.78,0-2.72-3.93S14.3,5.33,14.3,5.33v5.08Z" transform="translate(-0.01 -0.02)"/><path id="i2" class="cls-1" d="M4.83,0.48H5.61A0.53,0.53,0,0,1,6.13,1h0V1.55a0.53,0.53,0,0,1-.52.54H4.83a0.53,0.53,0,0,1-.52-0.54V1A0.53,0.53,0,0,1,4.83.48h0Z" transform="translate(-0.01 -0.02)"/><path id="i1" class="cls-1" d="M4.72,3.71h1.2a0.2,0.2,0,0,1,.2.23v8.54a0.19,0.19,0,0,1-.15.23H4.51s-0.2.06-.2-0.23V3.94a0.23,0.23,0,0,1,.2-0.23H4.72Z" transform="translate(-0.01 -0.02)"/><path id="l" class="cls-1" d="M0.23,0H1.59a0.2,0.2,0,0,1,.23.23V10.41a1.83,1.83,0,0,0,.45,1.39c0.54,0.48,0,.69,0,0.69L1.37,13a0.76,0.76,0,0,1-.91-0.46C0.06,11.83,0,11.41,0,9V0.24A0.21,0.21,0,0,1,.21,0h0Z" transform="translate(-0.01 -0.02)"/></svg>