<svg id="mastercard-hover" xmlns="http://www.w3.org/2000/svg" width="37.63" height="22.19" viewBox="0 0 37.63 22.19"><defs><style>.cls-1{fill:#da8c2c;}.cls-2{fill:#b2221d;}</style></defs><title>mastercard-hover</title><circle id="right" class="cls-1" cx="26.53" cy="11.09" r="11.09"/><path id="left" class="cls-2" d="M15.62,9.25H22a11,11,0,0,0-.34-1.41H16a11,11,0,0,1,.56-1.41h4.59A11.08,11.08,0,0,0,20.32,5h-3a11.13,11.13,0,0,1,1.13-1.41h0.76a11.09,11.09,0,1,0-.32,15.47H18.75a11.15,11.15,0,0,1-1.2-1.41h2.52a11.08,11.08,0,0,0,.87-1.41H16.68a11,11,0,0,1-.6-1.41h5.47a11,11,0,0,0,.4-1.41H15.67a11.12,11.12,0,0,1-.19-1.41h6.66c0-.29,0-0.58,0-0.87s0-.35,0-0.53h-6.7A11.13,11.13,0,0,1,15.62,9.25Z" transform="translate(0 -0.09)"/></svg>