<svg id="mobile-payment" xmlns="http://www.w3.org/2000/svg" width="16" height="23" viewBox="0 0 16 23"><defs><style>.cls-1{fill:none;}.cls-2{fill:#cbc7b4;}</style></defs><title>mobile-payment</title><rect id="icon2" class="cls-1" x="2.44" y="2.84" width="11" height="14.97"/><path id="icon" class="cls-2" d="M14,0H2A2,2,0,0,0,0,2V21a2,2,0,0,0,2,2H14a2,2,0,0,0,2-2V2A2,2,0,0,0,14,0ZM9,21.63H7v-2H9v2Zm4.44-3.81h-11v-15h11v15Z" transform="translate(0)"/><path id="_" data-name=" " class="cls-2" d="M8.33,15.28v-1A2.32,2.32,0,0,0,10.63,12V11.91a2.32,2.32,0,0,0-.15-0.85A1.94,1.94,0,0,0,10,10.38,2.4,2.4,0,0,0,9.3,9.9a7.67,7.67,0,0,0-1-.29V6.82a1.32,1.32,0,0,1,.74.4,1.66,1.66,0,0,1,.36.87l1-.15A2.2,2.2,0,0,0,9.67,6.5,2.39,2.39,0,0,0,8.33,6V5.54H7.76V6a2.54,2.54,0,0,0-1.45.53,2.27,2.27,0,0,0-.48,2.71,1.79,1.79,0,0,0,.71.71,4,4,0,0,0,1.22.46v3.08a1.41,1.41,0,0,1-1-.57,2.45,2.45,0,0,1-.4-1.14l-1,.18a2.71,2.71,0,0,0,.38,1.27,2.06,2.06,0,0,0,.78.75,3.57,3.57,0,0,0,1.18.32v1H8.33ZM7.76,9.49A1.9,1.9,0,0,1,6.83,9a1.34,1.34,0,0,1,0-1.69,1.44,1.44,0,0,1,.89-0.45V9.49h0Zm0.57,1.06a2.26,2.26,0,0,1,1,.57,1.3,1.3,0,0,1,.26.85,1.51,1.51,0,0,1-.37,1,1.44,1.44,0,0,1-.93.49V10.55Z" transform="translate(0)"/></svg>