<svg id="paypal-hover" xmlns="http://www.w3.org/2000/svg" width="53.15" height="14.88" viewBox="0 0 53.15 14.88"><defs><style>.cls-1{fill:#2483cf;}.cls-2{fill:#184793;}</style></defs><title>paypal-hover</title><path id="l" class="cls-1" d="M50.22,0L47.74,11.2h2.93L53.15,0H50.22Z" transform="translate(-0.01 0.02)"/><path id="a2" class="cls-1" d="M46.83,3.08a5.43,5.43,0,0,0-3.32-.81,19,19,0,0,0-3.07.56l-0.24,2s0.62-.13,1.08-0.25a13.76,13.76,0,0,1,1.82-.25,2,2,0,0,1,1.3.27,1.41,1.41,0,0,1,.15.89,16.73,16.73,0,0,0-1.76,0,6.48,6.48,0,0,0-3.16,1.16,3.27,3.27,0,0,0-.9,3.46A2.26,2.26,0,0,0,41,11.41a4.09,4.09,0,0,0,1.86-.61,6,6,0,0,1,.59-0.48c0.17,0,0,.38,0,0.38l-0.13.51h3s1.19-5.1,1.26-5.94A2.11,2.11,0,0,0,46.83,3.08ZM44.11,7.47a2.46,2.46,0,0,1-.46,1.46,1.67,1.67,0,0,1-1.72.44,0.88,0.88,0,0,1-.08-1.5,5.87,5.87,0,0,1,2.26-.4h0Z" transform="translate(-0.01 0.02)"/><path id="P2" class="cls-1" d="M36.85,0H31L28.5,11.2h3.25l0.73-3.76s1.89,0,3-.07,3.18-.53,3.91-3.69S36.85,0,36.85,0ZM36.32,3.78l0,0.07a2,2,0,0,1-1.64,1.51H33l0.7-3.09h1.89A1.19,1.19,0,0,1,36.32,3.78Z" transform="translate(-0.01 0.02)"/><path id="y" class="cls-2" d="M20.28,2.42l1.21,8.78-2.15,3.67h3.27l7-12.45h-3.1L23.73,7.69,23.18,2.42h-2.9Z" transform="translate(-0.01 0.02)"/><path id="a" class="cls-2" d="M18.34,3.08A5.43,5.43,0,0,0,15,2.27a19,19,0,0,0-3.07.56l-0.24,2s0.62-.13,1.08-0.25a13.79,13.79,0,0,1,1.82-.25,2,2,0,0,1,1.3.27,1.41,1.41,0,0,1,.15.89,16.73,16.73,0,0,0-1.76,0,6.48,6.48,0,0,0-3.16,1.16,3.27,3.27,0,0,0-.9,3.46,2.26,2.26,0,0,0,2.26,1.24,4.09,4.09,0,0,0,1.86-.61,6.14,6.14,0,0,1,.59-0.48c0.17,0,0,.38,0,0.38l-0.13.51h3S19,6.1,19,5.26A2.11,2.11,0,0,0,18.34,3.08ZM15.61,7.47a2.46,2.46,0,0,1-.46,1.46,1.67,1.67,0,0,1-1.72.44,0.87,0.87,0,0,1-.08-1.5,5.86,5.86,0,0,1,2.26-.4h0Z" transform="translate(-0.01 0.02)"/><path id="P" class="cls-2" d="M8.35,0H2.48L0,11.2H3.25L4,7.44s1.89,0,3-.07,3.18-.53,3.91-3.69S8.35,0,8.35,0ZM7.82,3.78l0,0.07A2,2,0,0,1,6.15,5.36H4.47l0.7-3.09H7.06A1.19,1.19,0,0,1,7.82,3.78Z" transform="translate(-0.01 0.02)"/></svg>