<svg id="qiwi" data-name="qiwi" xmlns="http://www.w3.org/2000/svg" width="20.32" height="22.01" viewBox="0 0 20.32 22.01"><defs><style>.cls-1{fill:#cbc7b4;}</style></defs><title>qiwi</title><path id="qiwi" class="cls-1" d="M14.82,15.45a0.48,0.48,0,0,0-.54.49,0.68,0.68,0,0,0,1,.68C15.64,16.41,15.36,15.47,14.82,15.45Zm1.49-.61s-0.29.06-.06,0.55,0.42,0.62.48,0.31-0.23-1-.42-0.86h0ZM17,15.26s2-1.92,2.14-6.21A9.07,9.07,0,0,0,13.45.64,10,10,0,0,0,5,1.31,10.28,10.28,0,0,0,0,10.53a8.4,8.4,0,0,0,3.45,6.7,10.81,10.81,0,0,0,6,1.9c3.61,0.08,2.54-1,6.08-.43A6.7,6.7,0,0,1,20.3,22a4.55,4.55,0,0,0-1.91-2.77,8.53,8.53,0,0,0-4.65-1.66,4.6,4.6,0,0,1-2.8-1.47,5.45,5.45,0,0,1-.6-1,0.8,0.8,0,0,0-.12.61,4.51,4.51,0,0,0,.24,1A8.16,8.16,0,0,1,3.38,12C1.26,7.27,3.84,1.89,8.32,1.93s6.65,4,7,4.79a7.82,7.82,0,0,1,1,3.44,12.35,12.35,0,0,1-.3,2.64,2.72,2.72,0,0,0-1.07-.55,4,4,0,0,0-1.19.06,3.4,3.4,0,0,1,3.22,3h0Z" transform="translate(0.02 -0.01)"/></svg>