<svg id="rbk" xmlns="http://www.w3.org/2000/svg" width="21.45" height="22.12" viewBox="0 0 21.45 22.12"><defs><style>.cls-1{fill:#cbc7b4;}.cls-2{fill:#9d9997;}</style></defs><title>rbk</title><path id="bottom-3" class="cls-1" d="M18.42,0a3,3,0,0,1,3,3h0v16.1a3,3,0,0,1-6,0V3a3,3,0,0,1,3-3h0Z" transform="translate(0.01 -0.01)"/><path id="bottom-2" class="cls-1" d="M10.72,7.79a3,3,0,0,1,3,3h0v8.32a3,3,0,0,1-6,0V10.77a3,3,0,0,1,3-3h0Z" transform="translate(0.01 -0.01)"/><circle id="bottom-1" class="cls-1" cx="3.02" cy="19.1" r="3.02"/><path id="top-2" class="cls-2" d="M10.72,0a3,3,0,1,1-3,3,3,3,0,0,1,3-3h0Z" transform="translate(0.01 -0.01)"/><path id="top-1" class="cls-2" d="M3,0A3,3,0,0,1,6,3H6v8.32a3,3,0,0,1-6,0V3A3,3,0,0,1,3,0H3Z" transform="translate(0.01 -0.01)"/></svg>