<svg id="sber" xmlns="http://www.w3.org/2000/svg" width="22.96" height="22.04" viewBox="0 0 22.96 22.04"><defs><style>.cls-1{fill:#cbc7b4;}</style></defs><title>sber</title><path class="cls-1" d="M21.69,6.27L7,14.76l-7-4c0,0.25,0,.5,0,0.75A11.48,11.48,0,1,0,21.69,6.27Z" transform="translate(0.01 -0.91)"/><path class="cls-1" d="M21.06,5.18a11.52,11.52,0,0,0-.73-1L7,11.86,0.5,8.08A11.41,11.41,0,0,0,.2,9.3L7,13.35Z" transform="translate(0.01 -0.91)"/><path class="cls-1" d="M19.45,3.24a11.52,11.52,0,0,0-1-.86L7,9,1.51,5.78A11.42,11.42,0,0,0,1,6.86L7,10.4Z" transform="translate(0.01 -0.91)"/><path class="cls-1" d="M17.27,1.58A11.41,11.41,0,0,0,16,.91L7,6.12,3,3.74a11.51,11.51,0,0,0-.76.93L7,7.63Z" transform="translate(0.01 -0.91)"/></svg>