<svg id="terminal" xmlns="http://www.w3.org/2000/svg" width="23.99" height="31.61" viewBox="0 0 23.99 31.61"><defs><style>.cls-1{fill:#cbc7b4;}.cls-2{fill:#51473d;}</style></defs><title>terminal</title><path id="terminal" class="cls-1" d="M24,29.61v2H0v-2H4.17L3.12,2.24A2,2,0,0,1,4.94,0H19.78A2,2,0,0,1,21.7,2.14V2.24L20.64,29.61H24Z" transform="translate(0.01)"/><rect id="button" class="cls-2" x="10.5" y="15.41" width="3.78" height="1.19" rx="0.58" ry="0.58"/><rect id="display" class="cls-2" x="5.86" y="2.04" width="13.06" height="11.12" rx="2" ry="2"/><path id="buttons" class="cls-1" d="M16.66,3.28H8.06v8.65h8.65V3.28H16.66ZM16.6,6.13H13.87V3.4H16.6V6.13ZM11,9V6.24h2.73V9H11Zm2.73,0.12v2.73H11V9.09h2.73ZM10.91,9H8.18V6.24h2.73V9ZM11,6.13V3.4h2.73V6.13H11Zm2.84,0.12H16.6V9H13.87V6.24Zm-3-2.85V6.13H8.18V3.4h2.73ZM8.18,9.09h2.73v2.72H8.18s0-1.24,0-2.72h0Zm5.69,2.73V9.09H16.6v2.73H13.87Zm2.79-8.54H8.06v8.65h8.65V3.28H16.66ZM16.6,6.13H13.87V3.4H16.6V6.13ZM11,9V6.24h2.73V9H11Zm2.73,0.12v2.73H11V9.09h2.73ZM10.91,9H8.18V6.24h2.73V9ZM11,6.13V3.4h2.73V6.13H11Zm2.84,0.12H16.6V9H13.87V6.24Zm-3-2.85V6.13H8.18V3.4h2.73ZM8.18,9.09h2.73v2.72H8.18s0-1.24,0-2.72h0Zm5.69,2.73V9.09H16.6v2.73H13.87Zm2.79-8.54H8.06v8.65h8.65V3.28H16.66ZM16.6,6.13H13.87V3.4H16.6V6.13ZM11,9V6.24h2.73V9H11Zm2.73,0.12v2.73H11V9.09h2.73ZM10.91,9H8.18V6.24h2.73V9ZM11,6.13V3.4h2.73V6.13H11Zm2.84,0.12H16.6V9H13.87V6.24Zm-3-2.85V6.13H8.18V3.4h2.73ZM8.18,9.09h2.73v2.72H8.18s0-1.24,0-2.72h0Zm5.69,2.73V9.09H16.6v2.73H13.87Z" transform="translate(0.01)"/></svg>