<svg id="visa" xmlns="http://www.w3.org/2000/svg" width="31.9" height="22.59" viewBox="0 0 31.9 22.59"><defs><style>.cls-1{fill:#9f9d9b;}.cls-2{fill:#cbc7b4;}</style></defs><title>visa</title><g id="background"><path id="top" class="cls-1" d="M1.33,0H30.57A1.33,1.33,0,0,1,31.9,1.32h0V6H0V1.32A1.33,1.33,0,0,1,1.33,0h0Z" transform="translate(0 0.01)"/><path id="bottom" class="cls-2" d="M0,16.6H31.9v4.65a1.33,1.33,0,0,1-1.33,1.33H1.33A1.33,1.33,0,0,1,0,21.26H0V16.6H0Z" transform="translate(0 0.01)"/></g><polygon class="cls-2" points="13.15 14.22 14.22 7.93 15.94 7.93 14.87 14.22 13.15 14.22"/><path class="cls-2" d="M21.09,8.07a4.43,4.43,0,0,0-1.54-.26c-1.7,0-2.89.85-2.9,2.08a2.1,2.1,0,0,0,1.5,1.71c0.67,0.31.89,0.51,0.89,0.78A0.88,0.88,0,0,1,18,13a3.6,3.6,0,0,1-1.62-.33l-0.22-.1L15.94,14a5.43,5.43,0,0,0,1.91.34c1.8,0,3-.84,3-2.15a1.93,1.93,0,0,0-1.44-1.71,1.32,1.32,0,0,1-1-.78c0-.26.31-0.54,1-0.54a3.17,3.17,0,0,1,1.28.24l0.15,0.07,0.23-1.36" transform="translate(0 0.01)"/><path class="cls-2" d="M25.49,7.92H24.16a0.85,0.85,0,0,0-.9.52l-2.55,5.77h1.8l0.36-.95h2.2c0.05,0.22.21,0.94,0.21,0.94h1.59L25.49,7.92M23.37,12l0.68-1.76s0.14-.36.23-0.6l0.12,0.54L24.8,12H23.37Z" transform="translate(0 0.01)"/><path class="cls-2" d="M11.71,7.92L10,12.22l-0.18-.87A4.91,4.91,0,0,0,7.47,8.7L9,14.21h1.82l2.7-6.29H11.71" transform="translate(0 0.01)"/><path class="cls-1" d="M8.47,7.92H5.7L5.68,8a5.68,5.68,0,0,1,4.17,3.29L9.25,8.45a0.72,0.72,0,0,0-.78-0.53" transform="translate(0 0.01)"/></svg>