<svg id="wm-accept" xmlns="http://www.w3.org/2000/svg" width="86.06" height="29.01" viewBox="0 0 86.06 29.01"><defs><style>.cls-1{fill:#cbc7b4;}.cls-2{fill:#51473d;}</style></defs><title>wm-accept</title><rect id="base" class="cls-1" width="86" height="10"/><path id="we_accept" data-name="we accept" class="cls-2" d="M22.91,2.6L22,6.82,20.56,2.6H19.8L18.44,6.82l-1-4.22h-1l1.43,5.45h0.84l1.39-4.2,1.4,4.2h0.9L23.83,2.6H22.91Zm6.81,2.32a2.59,2.59,0,0,0-.6-1.83,2.21,2.21,0,0,0-1.7-.64,2.5,2.5,0,0,0-1.92.79,3,3,0,0,0-.73,2.12,2.77,2.77,0,0,0,.76,2.09,2.92,2.92,0,0,0,2.12.74,3.85,3.85,0,0,0,1-.13,7.59,7.59,0,0,0,1-.33v-1h0a2.77,2.77,0,0,1-.8.44,3,3,0,0,1-1.12.22,2.41,2.41,0,0,1-.77-0.12,1.62,1.62,0,0,1-1-1,2.32,2.32,0,0,1-.15-0.88h4V4.92h0Zm-4-.21a1.69,1.69,0,0,1,.5-1.08,1.59,1.59,0,0,1,1.17-.43,1.4,1.4,0,0,1,1.09.4,1.62,1.62,0,0,1,.36,1.12H25.72Zm13.16-.37a2.13,2.13,0,0,0-.16-0.88,1.44,1.44,0,0,0-.47-0.58,2,2,0,0,0-.74-0.32,4.66,4.66,0,0,0-1-.1,5.87,5.87,0,0,0-1,.09l-0.78.16V3.64h0a6.27,6.27,0,0,1,.92-0.28,3.88,3.88,0,0,1,.81-0.1,4,4,0,0,1,.57,0,1.31,1.31,0,0,1,.47.15,0.81,0.81,0,0,1,.32.32A1.09,1.09,0,0,1,38,4.3V4.44a8.88,8.88,0,0,0-1.5.12,4.1,4.1,0,0,0-1.2.3,1.77,1.77,0,0,0-.76.6,1.72,1.72,0,0,0-.27,1,1.65,1.65,0,0,0,.51,1.25A1.75,1.75,0,0,0,36,8.19a2.87,2.87,0,0,0,.7-0.08,2.73,2.73,0,0,0,.53-0.19,2.39,2.39,0,0,0,.4-0.24L38,7.46V8h0.91V4.34h0ZM37.21,7.16a2,2,0,0,1-.88.19,1.33,1.33,0,0,1-.86-0.24,1,1,0,0,1,0-1.36,1.48,1.48,0,0,1,.64-0.35A5.11,5.11,0,0,1,37,5.27l1-.07V6.71a4,4,0,0,1-.74.46h0Zm7.46-.46h0l-0.28.2L44,7.12a2.47,2.47,0,0,1-.52.19,2.3,2.3,0,0,1-.57.07,1.53,1.53,0,0,1-1.24-.53,2.84,2.84,0,0,1,0-3.06,1.54,1.54,0,0,1,1.23-.53,2.38,2.38,0,0,1,.87.18,3.48,3.48,0,0,1,.87.5h0v-1a4.78,4.78,0,0,0-.83-0.32,3.27,3.27,0,0,0-.92-0.13A2.57,2.57,0,0,0,41,3.24a2.9,2.9,0,0,0-.73,2.1,3.67,3.67,0,0,0,.2,1.25,2.35,2.35,0,0,0,.55.89,2.21,2.21,0,0,0,.84.53,3.25,3.25,0,0,0,1.08.17,3.08,3.08,0,0,0,.88-0.12,5.91,5.91,0,0,0,.87-0.34v-1h0Zm5.21,0h0l-0.28.2-0.38.22a2.47,2.47,0,0,1-.52.19,2.3,2.3,0,0,1-.57.07,1.53,1.53,0,0,1-1.24-.53,2.84,2.84,0,0,1,0-3.06,1.54,1.54,0,0,1,1.23-.53,2.38,2.38,0,0,1,.87.18,3.48,3.48,0,0,1,.87.5h0v-1A4.78,4.78,0,0,0,49,2.61a3.27,3.27,0,0,0-.92-0.13,2.57,2.57,0,0,0-1.94.76,2.9,2.9,0,0,0-.73,2.1,3.65,3.65,0,0,0,.2,1.25,2.36,2.36,0,0,0,.55.89A2.22,2.22,0,0,0,47,8a3.25,3.25,0,0,0,1.08.17A3.08,3.08,0,0,0,49,8.05a5.91,5.91,0,0,0,.87-0.34v-1h0Zm5.74-1.78A2.59,2.59,0,0,0,55,3.09a2.21,2.21,0,0,0-1.7-.64,2.5,2.5,0,0,0-1.92.79,3,3,0,0,0-.73,2.12,2.77,2.77,0,0,0,.76,2.09,2.93,2.93,0,0,0,2.12.74,3.85,3.85,0,0,0,1-.13,7.57,7.57,0,0,0,1-.33v-1h0a2.75,2.75,0,0,1-.8.44,3,3,0,0,1-1.12.22,2.41,2.41,0,0,1-.77-0.12,1.62,1.62,0,0,1-1-1,2.32,2.32,0,0,1-.15-0.88h4V4.92h0Zm-4-.21a1.69,1.69,0,0,1,.5-1.08,1.59,1.59,0,0,1,1.17-.43,1.4,1.4,0,0,1,1.09.4,1.62,1.62,0,0,1,.36,1.12H51.62Zm9.66-1.53a1.8,1.8,0,0,0-1.54-.75,2.33,2.33,0,0,0-1,.21,3.55,3.55,0,0,0-.82.51V2.6H57v7.47h0.92V7.79a3.19,3.19,0,0,0,.7.29,3,3,0,0,0,.77.09A2.22,2.22,0,0,0,60.32,8a2.25,2.25,0,0,0,.76-0.56,2.65,2.65,0,0,0,.54-0.93,3.68,3.68,0,0,0,.19-1.21,3.42,3.42,0,0,0-.55-2.06h0ZM60.43,6.82a1.47,1.47,0,0,1-1.2.52,2.91,2.91,0,0,1-.64-0.06A3.65,3.65,0,0,1,57.92,7V4A3.6,3.6,0,0,1,58.7,3.5a2,2,0,0,1,.79-0.17,1.17,1.17,0,0,1,1,.49,2.62,2.62,0,0,1,.34,1.47,2.36,2.36,0,0,1-.43,1.53h0Zm5.64,0.36h0l-0.35.11a1.8,1.8,0,0,1-.47.07,1.38,1.38,0,0,1-.57-0.09A0.66,0.66,0,0,1,64.33,7a1.08,1.08,0,0,1-.14-0.45V3.38h1.9V2.6h-1.9V1H63.26V2.6H62.64V3.37h0.62v2.9a2,2,0,0,0,.43,1.44A1.68,1.68,0,0,0,65,8.16a3.87,3.87,0,0,0,.54,0A5,5,0,0,0,66.07,8V7.18h0Z"/><path class="cls-1" d="M78.89,27.07l-3.47-3.9,1-.82L74,19.62l1-.89-2.45-2.66,3.88-3.49L77.56,14l2.11-1.84,1.22,1.23,0.81-.74a8.8,8.8,0,0,0-13.3,7.63h0a8.81,8.81,0,0,0,14.26,6.89l-1.73-2Z"/><polygon class="cls-1" points="80.66 21.6 82.09 23.17 83.72 21.8 82.29 20.17 80.66 21.6"/><path class="cls-1" d="M84.06,20.65l1,1,1-.93v0l-0.93-1Z"/><polygon class="cls-1" points="84.8 24.72 83.58 23.38 82.08 24.75 83.51 26.39 83.61 26.29 85.01 24.95 84.8 24.72"/><polygon class="cls-1" points="83.65 18.52 84.67 17.64 83.72 16.55 82.7 17.5 83.65 18.52"/><polygon class="cls-1" points="77.05 23.38 78.96 25.43 81 23.58 79.16 21.47 77.05 23.38"/><polygon class="cls-1" points="83.38 14.49 82.43 13.4 81.34 14.36 82.36 15.45 83.38 14.49"/><polygon class="cls-1" points="79.57 19.96 77.66 17.78 75.55 19.76 77.46 21.81 79.57 19.96"/><polygon class="cls-1" points="78.06 16.35 76.16 14.23 73.98 16.14 75.95 18.26 78.06 16.35"/><polygon class="cls-1" points="80.86 15.32 79.5 13.68 77.87 15.11 79.3 16.68 80.86 15.32"/><rect class="cls-1" x="79.74" y="17.27" width="2.17" height="2.18" transform="translate(7.98 57.9) rotate(-41.29)"/><path id="webmoney" class="cls-1" d="M12.22,15.51L10.4,22.83,8.58,15.51H7.4L5.6,22.76,3.77,15.51H2.58l2.31,8.72H6.16L8,17l1.83,7.24H11.1l2.27-8.72H12.22Zm7.53,5a3.11,3.11,0,0,0-.72-2.2,2.65,2.65,0,0,0-2-.77,3,3,0,0,0-2.3.94A3.6,3.6,0,0,0,13.81,21a3.32,3.32,0,0,0,.91,2.5,3.51,3.51,0,0,0,2.54.88,4.61,4.61,0,0,0,1.22-.16,9.07,9.07,0,0,0,1.14-.39v-1.2h0a3.32,3.32,0,0,1-1,.52,3.65,3.65,0,0,1-1.34.27,2.89,2.89,0,0,1-.92-0.14,1.94,1.94,0,0,1-1.22-1.16,2.79,2.79,0,0,1-.18-1h4.82v-0.6h0Zm-4.82-.25a2,2,0,0,1,.6-1.29,1.91,1.91,0,0,1,1.41-.52,1.68,1.68,0,0,1,1.31.47,2,2,0,0,1,.44,1.34H14.93ZM26.39,18.4a2.17,2.17,0,0,0-1.83-.89,2.74,2.74,0,0,0-1.17.24,4.59,4.59,0,0,0-1,.62V15.12h-1.1v9.12h1l0.07-.3a4.5,4.5,0,0,0,.82.36,3.22,3.22,0,0,0,1,.13,2.57,2.57,0,0,0,1.09-.23,2.84,2.84,0,0,0,.91-0.69,3.3,3.3,0,0,0,.62-1.1A4.4,4.4,0,0,0,27,20.93,4.11,4.11,0,0,0,26.39,18.4Zm-1,4.43a1.79,1.79,0,0,1-1.43.6,3.25,3.25,0,0,1-.77-0.08,4.8,4.8,0,0,1-.8-0.29V19.3a4,4,0,0,1,.91-0.54,2.48,2.48,0,0,1,1-.21,1.37,1.37,0,0,1,1.25.61,3.33,3.33,0,0,1,.39,1.78,2.84,2.84,0,0,1-.52,1.89h0ZM36.5,15.51H34.91l-2.25,4.86-2.33-4.86H28.75v8.72h1.08V16.72l2.41,5.11h0.69l2.43-5.11v7.52h1.16V15.51h0Zm6.89,2.93A3.07,3.07,0,0,0,39,18.38h0l0,0a4.32,4.32,0,0,0,0,5.05,3.08,3.08,0,0,0,4.36,0h0a4.3,4.3,0,0,0,0-5.06h0Zm-0.82,4.4A1.83,1.83,0,0,1,40,23l-0.19-.19a3.8,3.8,0,0,1,0-3.76,1.87,1.87,0,0,1,2.63-.14L42.58,19a3.79,3.79,0,0,1,0,3.76h0v0ZM51.29,20a2.72,2.72,0,0,0-.56-1.84,2,2,0,0,0-1.62-.64,2.8,2.8,0,0,0-1.13.24,4.47,4.47,0,0,0-1.07.67V17.69h-1.1v6.54h1.1V19.35a4.79,4.79,0,0,1,.94-0.57,2.29,2.29,0,0,1,.94-0.22,1.8,1.8,0,0,1,.72.12,0.89,0.89,0,0,1,.42.37,1.54,1.54,0,0,1,.19.62,6.28,6.28,0,0,1,0,.85v3.73h1.1V20h0Zm7.48,0.49a3.11,3.11,0,0,0-.72-2.2,2.65,2.65,0,0,0-2-.77,3,3,0,0,0-2.31.94A3.6,3.6,0,0,0,52.83,21a3.32,3.32,0,0,0,.91,2.5,3.51,3.51,0,0,0,2.54.88,4.61,4.61,0,0,0,1.22-.16,9.11,9.11,0,0,0,1.14-.39v-1.2H58.58a3.32,3.32,0,0,1-1,.52,3.64,3.64,0,0,1-1.34.27,2.89,2.89,0,0,1-.92-0.14,2,2,0,0,1-1.22-1.16,2.79,2.79,0,0,1-.18-1h4.82v-0.6h0ZM54,20.24A2,2,0,0,1,54.6,19a1.91,1.91,0,0,1,1.4-.53,1.68,1.68,0,0,1,1.31.47,2,2,0,0,1,.44,1.34H54ZM64.88,17.7l-2,4.85-2-4.85h-1.2l2.61,6.23L61,26.65h1.18l3.82-9H64.83Z"/></svg>