<svg id="wm-verified-hover" xmlns="http://www.w3.org/2000/svg" width="86.06" height="29.01" viewBox="0 0 86.06 29.01"><defs><style>.cls-1{fill:#1c70bd;}.cls-2{fill:#51473d;}</style></defs><title>wm-verified-hover</title><rect id="base" class="cls-1" width="86" height="10"/><path id="verified" class="cls-2" d="M27.73,2.6L26,6.94,24.36,2.6h-1L25.55,8h0.92L28.68,2.6h-1Zm6.64,2.32a2.59,2.59,0,0,0-.6-1.83,2.2,2.2,0,0,0-1.7-.65,2.5,2.5,0,0,0-1.92.79,3,3,0,0,0-.73,2.12,2.77,2.77,0,0,0,.76,2.09,2.93,2.93,0,0,0,2.12.74,3.85,3.85,0,0,0,1-.13,7.57,7.57,0,0,0,1-.33v-1h0a2.75,2.75,0,0,1-.8.44,3,3,0,0,1-1.12.22,2.41,2.41,0,0,1-.77-0.12,1.62,1.62,0,0,1-1-1,2.33,2.33,0,0,1-.15-0.88h4V4.92h0Zm-4-.2a1.68,1.68,0,0,1,.5-1.08A1.59,1.59,0,0,1,32,3.2a1.4,1.4,0,0,1,1.09.4,1.62,1.62,0,0,1,.36,1.12H30.37Zm8.81-2.06H38.49a2.11,2.11,0,0,0-.85.18,4.52,4.52,0,0,0-1,.62V2.6H35.76V8.05h0.92V4.19a3.77,3.77,0,0,1,.76-0.49,1.89,1.89,0,0,1,.82-0.19h0.46l0.4,0.07h0V2.66h0.06ZM41,0.73H40v1h1v-1h0ZM41,2.6H40V8.05h1V2.6Zm4.7-2.09-0.45-.07a4.75,4.75,0,0,0-.55,0A1.81,1.81,0,0,0,43.3,1a2.11,2.11,0,0,0-.48,1.49V2.6H42.2V3.37h0.62V8.05h0.92V3.38h1.63V2.6H43.71V2.42a1.31,1.31,0,0,1,.29-1,1.19,1.19,0,0,1,.86-0.26,2.34,2.34,0,0,1,.43,0l0.4,0.09h0V0.51h0Zm1.57,0.23h-1v1h1v-1h0ZM47.21,2.6H46.29V8.05h0.92V2.6ZM53.6,4.92A2.59,2.59,0,0,0,53,3.1a2.21,2.21,0,0,0-1.7-.65,2.5,2.5,0,0,0-1.92.79,3,3,0,0,0-.73,2.12,2.77,2.77,0,0,0,.76,2.09,2.92,2.92,0,0,0,2.12.74,3.85,3.85,0,0,0,1-.13,7.59,7.59,0,0,0,1-.33v-1h0a2.77,2.77,0,0,1-.8.44,3,3,0,0,1-1.12.22,2.41,2.41,0,0,1-.77-0.12,1.62,1.62,0,0,1-1-1,2.32,2.32,0,0,1-.15-0.88h4V4.93h0Zm-4-.2a1.69,1.69,0,0,1,.5-1.08,1.59,1.59,0,0,1,1.17-.43,1.4,1.4,0,0,1,1.09.4,1.62,1.62,0,0,1,.36,1.12H49.6Zm9.83-4.26H58.49V2.82a3.52,3.52,0,0,0-.7-0.28A2.91,2.91,0,0,0,57,2.45a2.27,2.27,0,0,0-1.69.76,2.85,2.85,0,0,0-.53.92,3.61,3.61,0,0,0-.2,1.24,3.37,3.37,0,0,0,.57,2.08,1.85,1.85,0,0,0,1.55.75,2.27,2.27,0,0,0,1-.2,3.3,3.3,0,0,0,.83-0.53V8.05h0.92V0.45h0Zm-1.66,6.7a2,2,0,0,1-.79.17,1.18,1.18,0,0,1-1.06-.5,2.7,2.7,0,0,1-.33-1.48A2.38,2.38,0,0,1,56,3.82a1.45,1.45,0,0,1,1.2-.54,3,3,0,0,1,.64.06,3.43,3.43,0,0,1,.66.23V6.71a3.35,3.35,0,0,1-.75.45h0Z"/><path class="cls-1" d="M78.89,27.07l-3.47-3.9,1-.82L74,19.62l1-.89-2.45-2.66,3.88-3.48L77.56,14l2.11-1.85,1.22,1.23,0.81-.74a8.8,8.8,0,0,0-13.3,7.63h0a8.81,8.81,0,0,0,14.26,6.89l-1.73-2Z"/><polygon class="cls-1" points="80.66 21.6 82.09 23.17 83.72 21.8 82.29 20.16 80.66 21.6"/><path class="cls-1" d="M84.06,20.64l1,1,1-.93v0l-0.93-1Z"/><polygon class="cls-1" points="83.65 18.52 84.67 17.64 83.72 16.54 82.7 17.5 83.65 18.52"/><polygon class="cls-1" points="84.8 24.71 83.58 23.38 82.08 24.74 83.51 26.38 83.63 26.28 85.01 24.95 84.8 24.71"/><polygon class="cls-1" points="83.38 14.49 82.43 13.4 81.34 14.36 82.36 15.45 83.38 14.49"/><polygon class="cls-1" points="79.57 19.96 77.66 17.77 75.55 19.76 77.46 21.81 79.57 19.96"/><polygon class="cls-1" points="77.05 23.38 78.96 25.43 81 23.58 79.16 21.46 77.05 23.38"/><polygon class="cls-1" points="80.73 19.89 82.36 18.46 80.93 16.82 79.3 18.25 80.73 19.89"/><polygon class="cls-1" points="80.86 15.32 79.5 13.67 77.87 15.11 79.3 16.68 80.86 15.32"/><polygon class="cls-1" points="78.06 16.34 76.16 14.22 73.98 16.14 75.95 18.26 78.06 16.34"/><path id="webmoney" class="cls-1" d="M12.22,15.51L10.4,22.83,8.58,15.51H7.4L5.6,22.76,3.77,15.51H2.58l2.31,8.73H6.16L8,17l1.83,7.24H11.1l2.27-8.72H12.22Zm7.53,5a3.11,3.11,0,0,0-.72-2.2,2.65,2.65,0,0,0-2-.77,3,3,0,0,0-2.3.94A3.6,3.6,0,0,0,13.81,21a3.32,3.32,0,0,0,.91,2.5,3.51,3.51,0,0,0,2.54.88,4.61,4.61,0,0,0,1.22-.16,9.07,9.07,0,0,0,1.14-.39v-1.2h0a3.32,3.32,0,0,1-1,.52,3.65,3.65,0,0,1-1.34.27,2.89,2.89,0,0,1-.92-0.14,1.94,1.94,0,0,1-1.22-1.16,2.79,2.79,0,0,1-.18-1h4.82v-0.6h0Zm-4.82-.25a2,2,0,0,1,.6-1.29,1.91,1.91,0,0,1,1.41-.52,1.68,1.68,0,0,1,1.31.47,2,2,0,0,1,.44,1.34H14.93ZM26.39,18.4a2.17,2.17,0,0,0-1.83-.89,2.74,2.74,0,0,0-1.17.24,4.59,4.59,0,0,0-1,.62V15.12h-1.1v9.12h1l0.07-.3a4.5,4.5,0,0,0,.82.35,3.22,3.22,0,0,0,1,.13,2.57,2.57,0,0,0,1.09-.23,2.84,2.84,0,0,0,.91-0.69,3.3,3.3,0,0,0,.62-1.1A4.4,4.4,0,0,0,27,20.92,4.11,4.11,0,0,0,26.39,18.4Zm-1,4.43a1.79,1.79,0,0,1-1.43.6,3.25,3.25,0,0,1-.77-0.08,4.8,4.8,0,0,1-.8-0.29V19.3a4,4,0,0,1,.91-0.54,2.48,2.48,0,0,1,1-.21,1.37,1.37,0,0,1,1.25.61,3.33,3.33,0,0,1,.39,1.78,2.84,2.84,0,0,1-.52,1.89h0ZM36.5,15.52H34.91l-2.25,4.86-2.33-4.86H28.75v8.73h1.08V16.72l2.41,5.12h0.69l2.43-5.11v7.52h1.16V15.51h0Zm6.89,2.93A3.07,3.07,0,0,0,39,18.39h0l0,0A3.69,3.69,0,0,0,38.2,21a3.68,3.68,0,0,0,.8,2.49,3.08,3.08,0,0,0,4.36,0h0A3.68,3.68,0,0,0,44.23,21a3.69,3.69,0,0,0-.82-2.53h0Zm-0.82,4.4A1.83,1.83,0,0,1,40,23l-0.19-.19a3,3,0,0,1-.5-1.87,3,3,0,0,1,.5-1.89,1.87,1.87,0,0,1,2.63-.14L42.58,19a3,3,0,0,1,.52,2,3,3,0,0,1-.5,1.87h0ZM51.29,20a2.72,2.72,0,0,0-.56-1.84,2,2,0,0,0-1.62-.64,2.8,2.8,0,0,0-1.13.24,4.47,4.47,0,0,0-1.07.67V17.69h-1.1v6.54h1.1V19.35a4.79,4.79,0,0,1,.94-0.57,2.29,2.29,0,0,1,.94-0.22,1.8,1.8,0,0,1,.72.12,0.89,0.89,0,0,1,.42.37,1.54,1.54,0,0,1,.19.62,6.28,6.28,0,0,1,0,.85v3.73h1.1V20h0Zm7.48,0.49a3.11,3.11,0,0,0-.72-2.2,2.65,2.65,0,0,0-2-.77,3,3,0,0,0-2.31.94A3.6,3.6,0,0,0,52.83,21a3.32,3.32,0,0,0,.91,2.5,3.51,3.51,0,0,0,2.54.88,4.61,4.61,0,0,0,1.22-.16,9.11,9.11,0,0,0,1.14-.39v-1.2H58.58a3.32,3.32,0,0,1-1,.52,3.64,3.64,0,0,1-1.34.27,2.89,2.89,0,0,1-.92-0.14,2,2,0,0,1-1.22-1.16,2.79,2.79,0,0,1-.18-1h4.82v-0.6h0ZM54,20.24A2,2,0,0,1,54.6,19a1.91,1.91,0,0,1,1.4-.53,1.68,1.68,0,0,1,1.31.47,2,2,0,0,1,.44,1.34H54ZM64.88,17.7l-2,4.85-2-4.85h-1.2l2.61,6.23L61,26.65h1.18l3.82-9H64.83Z"/></svg>