<svg id="wm" xmlns="http://www.w3.org/2000/svg" width="21.36" height="21.3" viewBox="0 0 21.36 21.3"><defs><style>.cls-1{fill:#cbc7b4;}</style></defs><title>wm</title><path class="cls-1" d="M12.69,19l-4.2-4.72,1.15-1-3-3.31L7.83,8.85l-3-3.23L9.53,1.4,11,3.06l2.55-2.23L15,2.32l1-.9A10.61,10.61,0,0,0,10.63,0h0A10.65,10.65,0,0,0,0,10.67H0A10.66,10.66,0,0,0,17.26,19l-2.1-2.42Z" transform="translate(0 0)"/><polygon class="cls-1" points="18.46 8.6 19.7 7.53 18.54 6.2 17.31 7.36 18.46 8.6"/><path class="cls-1" d="M20.19,10L19,11.17l1.15,1.24,1.21-1.13V11.22Z" transform="translate(0 0)"/><polygon class="cls-1" points="18.38 14.48 16.56 16.13 18.3 18.12 18.42 18 20.11 16.38 19.85 16.1 18.38 14.48"/><polygon class="cls-1" points="16.89 4.88 18.13 3.72 16.98 2.4 15.66 3.56 16.89 4.88"/><polygon class="cls-1" points="15.25 14.73 13.02 12.16 10.47 14.48 12.77 16.96 15.25 14.73"/><polygon class="cls-1" points="18.54 12.57 16.81 10.59 14.83 12.33 16.56 14.23 18.54 12.57"/><polygon class="cls-1" points="13.52 10.34 11.21 7.69 8.65 10.09 10.96 12.57 13.52 10.34"/><polygon class="cls-1" points="16.89 8.52 15.16 6.54 13.19 8.27 14.92 10.26 16.89 8.52"/><polygon class="cls-1" points="6.76 5.71 9.15 8.27 11.7 5.96 9.39 3.39 6.76 5.71"/><polygon class="cls-1" points="11.45 4.47 13.18 6.37 15.08 4.72 13.43 2.73 11.45 4.47"/></svg>