<svg id="wu" xmlns="http://www.w3.org/2000/svg" width="48.36" height="31.54" viewBox="0 0 48.36 31.54"><defs><style>.cls-1{fill:#5f564d;}.cls-2,.cls-3{fill:#c6c6c6;}.cls-2{fill-rule:evenodd;}</style></defs><title>wu</title><path id="background" class="cls-1" d="M2,0H46.35a1.94,1.94,0,0,1,2,1.86V29.69a1.94,1.94,0,0,1-2,1.86H2a1.94,1.94,0,0,1-2-1.86V1.87A1.94,1.94,0,0,1,2,0Z" transform="translate(-0.01 -0.01)"/><g id="text"><path class="cls-2" d="M21.06,12.27H19.2V12a0.38,0.38,0,0,0-.43-0.37,0.44,0.44,0,0,0-.39.39,0.75,0.75,0,0,0,.7.54c1.31,0.38,2,.65,2,1.72,0,0.89-.89,1.45-2.34,1.44-1,0-2.37-.13-2.39-1.62h1.92c0,0.09,0,.17,0,0.26a0.39,0.39,0,0,0,.4.38,0.42,0.42,0,0,0,.45-0.42,0.65,0.65,0,0,0-.65-0.53c-1.33-.22-2.1-0.73-2-1.61,0.08-1.28,1.45-1.51,2.39-1.52s2.18,0.43,2.23,1.64h0Z" transform="translate(-0.01 -0.01)"/><path class="cls-2" d="M21.38,16.8v3a1.82,1.82,0,0,1-1.82,1.82H18.3a1.82,1.82,0,0,1-1.81-1.82v-3h2v3a0.47,0.47,0,1,0,.94,0v-3h2Z" transform="translate(-0.01 -0.01)"/><polygon class="cls-2" points="28.87 21.49 30.88 21.49 30.88 16.79 28.87 16.79 28.87 21.49 28.87 21.49"/><polygon class="cls-2" points="38.33 16.79 40.78 16.79 41.63 19.01 41.63 16.79 43.21 16.79 43.21 21.49 40.88 21.49 39.9 18.95 39.9 21.49 38.33 21.49 38.33 16.79 38.33 16.79"/><polygon class="cls-2" points="22.7 16.79 25.15 16.79 25.99 19.01 25.99 16.79 27.58 16.79 27.58 21.49 25.24 21.49 24.27 18.95 24.27 21.49 22.7 21.49 22.7 16.79 22.7 16.79"/><polygon class="cls-2" points="38.36 10.82 40.81 10.82 41.66 13.03 41.66 10.82 43.24 10.82 43.24 15.52 40.9 15.52 39.93 12.97 39.93 15.52 38.36 15.52 38.36 10.82 38.36 10.82"/><polygon class="cls-2" points="21.64 10.82 26.15 10.82 26.15 11.96 24.89 11.96 24.89 15.52 22.9 15.52 22.9 11.96 21.64 11.96 21.64 10.82 21.64 10.82"/><polygon class="cls-2" points="27.07 10.82 31.02 10.82 31.02 11.94 28.98 11.94 28.98 12.55 31.02 12.55 31.02 13.73 28.98 13.73 28.98 14.34 31.02 14.34 31.02 15.52 27.07 15.52 27.07 10.82 27.07 10.82"/><polygon class="cls-2" points="11.39 10.82 15.35 10.82 15.35 11.94 13.3 11.94 13.3 12.55 15.35 12.55 15.35 13.73 13.3 13.73 13.3 14.34 15.35 14.34 15.35 15.52 11.39 15.52 11.39 10.82 11.39 10.82"/><polygon class="cls-2" points="6.97 12.86 6.51 15.52 4.48 15.52 3.44 10.82 5.09 10.82 5.57 13.24 5.98 10.82 7.99 10.82 8.42 13.24 8.82 10.82 10.51 10.82 9.5 15.52 7.45 15.52 6.97 12.86 6.97 12.86"/><polygon class="cls-2" points="44.7 10.83 45.05 10.83 45.05 21.36 44.7 21.36 44.7 10.83 44.7 10.83"/><path class="cls-3" d="M35.06,16.54H34.2A2.24,2.24,0,0,0,32,18.77v0.62a2.24,2.24,0,0,0,2.23,2.23h0.86a2.24,2.24,0,0,0,2.24-2.23V18.77A2.24,2.24,0,0,0,35.06,16.54Zm-0.43,4c-0.5,0-.58-0.64-0.58-1.42s0.08-1.43.58-1.43,0.58,0.64.58,1.43S35.14,20.51,34.63,20.51Z" transform="translate(-0.01 -0.01)"/><path class="cls-3" d="M37.1,15V14.21a1,1,0,0,0-.88-1,1.15,1.15,0,0,0,.9-1.19A1.08,1.08,0,0,0,36,10.83H32.44v4.7h1.93V13.91h0.46a0.46,0.46,0,0,1,.31.51V15a0.82,0.82,0,0,0,.16.54h1.92A0.92,0.92,0,0,1,37.1,15Zm-2.28-2.17H34.38v-1h0.43a0.46,0.46,0,0,1,.43.51A0.46,0.46,0,0,1,34.81,12.83Z" transform="translate(-0.01 -0.01)"/></g></svg>