<svg id="ym" data-name="ym" xmlns="http://www.w3.org/2000/svg" width="18.3" height="21" viewBox="0 0 18.3 21"><defs><style>.cls-1{fill:#cbc7b4;}</style></defs><title>ym</title><path id="ym" class="cls-1" d="M11.85,0.24L1.17,6.36A2.66,2.66,0,0,0,0,8.13c0,1,0,11.22,0,11.22A2.3,2.3,0,0,0,2,21c1.44,0,14.75,0,14.75,0a1.56,1.56,0,0,0,1.6-1.52s0,0,0,0V8.47A1.54,1.54,0,0,0,17,7.18h-1.4V14s0.18,1.61-1.94,2.24S3.57,19.14,3.57,19.14s-0.93.24-.87-0.48,0.23-.56,1.67-1.16,7.94-3.2,7.94-3.2a2.72,2.72,0,0,0,1.54-2.58V1.4S14.17-.73,11.85.24ZM10.18,6.09s0.7-.12.73,1A2.19,2.19,0,0,1,9.45,8.81c-0.2.05-1.05,0.27-1-.88A1.92,1.92,0,0,1,10.18,6.09Z" transform="translate(-0.02 0.01)"/></svg>