<svg id="g-plus.svg" xmlns="http://www.w3.org/2000/svg" width="25" height="25" viewBox="0 0 25 25">
  <defs>
    <style>
      .cls-1 {
        fill: #bfbfc0;
      }

      .cls-1, .cls-2 {
        fill-rule: evenodd;
      }

      .cls-2 {
        fill: #fff;
      }
    </style>
  </defs>
  <path id="fill" class="cls-1" d="M97.008,7.008H122V32H97.008V7.008Z" transform="translate(-97 -7)"/>
  <path id="icon" class="cls-2" d="M112.7,11.005h-5.533c-2.481,0-4.816,1.528-4.816,3.661,0,2.184,1.69,3.787,4.214,3.787,0.175,0,.346-0.083.514-0.1a2.5,2.5,0,0,0-.281,1.1,2.312,2.312,0,0,0,.753,1.6h-0.96c-3.071,0-5.436,1.794-5.436,3.784,0,1.959,2.592,3.124,5.665,3.124,3.5,0,5.437-1.982,5.437-3.941a3.813,3.813,0,0,0-1.935-3.558,3.558,3.558,0,0,1-1.457-1.687c0-.582.17-0.868,1.062-1.553a2.974,2.974,0,0,0,1.564-2.453c0-1.366-.62-2.757-1.785-2.757h1.755Zm-1.933,12.644a2.4,2.4,0,0,1,.067.557c0,1.584-1.04,2.821-4.025,2.821-2.123,0-3.658-1.318-3.658-2.9,0-1.551,1.9-2.844,4.025-2.821a4.747,4.747,0,0,1,1.378.216C109.7,22.307,110.53,22.752,110.764,23.649Zm-3.4-5.908c-1.427-.04-2.782-1.564-3.027-3.4s0.709-2.945,2.134-2.9a3.316,3.316,0,0,1,3.027,3.054C109.743,16.328,108.788,17.782,107.364,17.741Zm9.571-3.912v-2.8h-1.322v2.8H112.79v1.194h2.823v2.836h1.322V15.022h2.821V13.828h-2.821Z" transform="translate(-97 -7)"/>
</svg>
