<svg id="linkedin.svg" xmlns="http://www.w3.org/2000/svg" width="25" height="25" viewBox="0 0 25 25">
  <defs>
    <style>
      .cls-1 {
        fill: #bfbfc0;
      }

      .cls-1, .cls-2 {
        fill-rule: evenodd;
      }

      .cls-2 {
        fill: #fff;
      }
    </style>
  </defs>
  <path id="fill" class="cls-1" d="M125.988,6.988h25.023V32.011H125.988V6.988Z" transform="translate(-126 -7)"/>
  <path id="icon" class="cls-2" d="M143.6,20.221c0-1.471-.3-2.477-1.662-2.477a2.444,2.444,0,0,0-2.185,1.332,2.4,2.4,0,0,0-.125.887v6.114h-4.021s0.049-10.327,0-11.353h4.021v1.956a0.25,0.25,0,0,1-.024.036h0.024V16.681a4.33,4.33,0,0,1,3.651-1.959c2.482,0,4.343,1.716,4.343,5.079v6.277H143.6V20.221Zm-11.467-6.585h-0.025A2.165,2.165,0,1,1,132.132,13.636Zm1.887,12.442h-3.773V15.131h3.773V26.078Zm-1.993-17.04a2.636,2.636,0,0,1,2.8,2.434,2.826,2.826,0,0,1-5.6,0A2.636,2.636,0,0,1,132.026,9.038Zm0,0a2.029,2.029,0,1,1-2,2.029A2.014,2.014,0,0,1,132.026,9.038Zm-2,5.681h4V26.08h-4V14.719Z" transform="translate(-126 -7)"/>
</svg>
