<svg id="linkedin_hover.svg" xmlns="http://www.w3.org/2000/svg" width="25" height="25" viewBox="0 0 25 25">
  <defs>
    <style>
      .cls-1 {
        fill: #0e76a8;
      }

      .cls-1, .cls-2 {
        fill-rule: evenodd;
      }

      .cls-2 {
        fill: #fff;
      }
    </style>
  </defs>
  <path id="fill" class="cls-1" d="M125.988,35.988h25.023V61.012H125.988V35.988Z" transform="translate(-126 -36)"/>
  <path id="icon" class="cls-2" d="M143.6,49.221c0-1.471-.3-2.477-1.662-2.477a2.444,2.444,0,0,0-2.185,1.333,2.4,2.4,0,0,0-.125.887v6.114h-4.021s0.049-10.327,0-11.353h4.021v1.956a0.25,0.25,0,0,1-.024.036h0.024V45.681a4.33,4.33,0,0,1,3.651-1.959c2.482,0,4.343,1.716,4.343,5.079v6.277H143.6V49.221Zm-11.467-6.585h-0.025A2.165,2.165,0,1,1,132.132,42.636Zm1.887,12.442h-3.773V44.131h3.773V55.078Zm-1.993-17.04a2.458,2.458,0,1,1-2.8,2.435A2.636,2.636,0,0,1,132.026,38.038Zm0,0a2.029,2.029,0,1,1-2,2.029A2.014,2.014,0,0,1,132.026,38.038Zm-2,5.681h4V55.08h-4V43.719Z" transform="translate(-126 -36)"/>
</svg>
