<svg id="ok_hover.svg" xmlns="http://www.w3.org/2000/svg" width="25" height="25" viewBox="0 0 25 25">
  <defs>
    <style>
      .cls-1 {
        fill: #ff9c43;
      }

      .cls-1, .cls-2 {
        fill-rule: evenodd;
      }

      .cls-2 {
        fill: #fff;
      }
    </style>
  </defs>
  <path id="fill" class="cls-1" d="M154.988,35.988h25.023V61.012H154.988V35.988Z" transform="translate(-155 -36)"/>
  <path id="icon" class="cls-2" d="M167.625,39.188a4.969,4.969,0,1,1-4.969,4.969A4.969,4.969,0,0,1,167.625,39.188Zm0.031,3.031a1.984,1.984,0,1,1-2,1.984A1.992,1.992,0,0,1,167.656,42.219Z" transform="translate(-155 -36)"/>
  <path id="icon_2" data-name="icon 2" class="cls-2" d="M167.49,50.429c2.334-.036,4.208-1.64,4.783-1.6a1.262,1.262,0,0,1,.959,1.586c-0.626,1.08-2.942,1.824-2.978,2.4s2.813,2.356,2.921,2.895c0.395,0.574.426,2.06-.866,2.167S168.036,55,167.605,55s-3.195,2.8-3.733,3.016a1.457,1.457,0,0,1-1.635-1.591c0.072-1.185,2.141-2.015,2.474-3.348,0.144-.574-2.948-2.305-2.948-2.305a1.672,1.672,0,0,1,.457-1.8C163.082,48.287,165.156,50.465,167.49,50.429Z" transform="translate(-155 -36)"/>
</svg>
