<svg id="print_hover.svg" xmlns="http://www.w3.org/2000/svg" width="25" height="25" viewBox="0 0 25 25">
  <defs>
    <style>
      .cls-1 {
        fill: #2e2e2e;
      }

      .cls-1, .cls-2 {
        fill-rule: evenodd;
      }

      .cls-2 {
        fill: #fff;
      }
    </style>
  </defs>
  <path id="fill" class="cls-1" d="M211.988,35.988h25.023V61.012H211.988V35.988Z" transform="translate(-212 -36)"/>
  <path id="icon" class="cls-2" d="M230.364,41.4a1.238,1.238,0,0,0-1.234-1.234h-9.257a1.238,1.238,0,0,0-1.234,1.234v3.7h11.725V41.4Zm1.234,4.32H217.405a1.818,1.818,0,0,0-1.852,1.851v5.554a1.818,1.818,0,0,0,1.852,1.851h0.617V50.042h12.959v4.937H231.6a1.819,1.819,0,0,0,1.852-1.851V47.574A1.819,1.819,0,0,0,231.6,45.723Zm-1.851,3.085a0.617,0.617,0,1,1,.617-0.617A0.583,0.583,0,0,1,229.747,48.808ZM218.987,55.6a1.238,1.238,0,0,0,1.234,1.234h9.257a1.238,1.238,0,0,0,1.234-1.234V50.66H218.987V55.6Z" transform="translate(-212 -36)"/>
</svg>
