<svg id="print.svg" xmlns="http://www.w3.org/2000/svg" width="25" height="25" viewBox="0 0 25 25">
  <defs>
    <style>
      .cls-1 {
        fill: #bfbfc0;
      }

      .cls-1, .cls-2 {
        fill-rule: evenodd;
      }

      .cls-2 {
        fill: #fff;
      }
    </style>
  </defs>
  <path id="fill" class="cls-1" d="M211.988,6.988h25.023V32.011H211.988V6.988Z" transform="translate(-212 -7)"/>
  <path id="icon" class="cls-2" d="M230.364,12.4a1.238,1.238,0,0,0-1.234-1.234h-9.257a1.238,1.238,0,0,0-1.234,1.234v3.7h11.725V12.4Zm1.234,4.32H217.405a1.818,1.818,0,0,0-1.852,1.851v5.554a1.818,1.818,0,0,0,1.852,1.851h0.617V21.042h12.959v4.937H231.6a1.819,1.819,0,0,0,1.852-1.851V18.574A1.819,1.819,0,0,0,231.6,16.723Zm-1.851,3.085a0.617,0.617,0,1,1,.617-0.617A0.583,0.583,0,0,1,229.747,19.808ZM218.987,26.6a1.238,1.238,0,0,0,1.234,1.234h9.257a1.238,1.238,0,0,0,1.234-1.234V21.66H218.987V26.6Z" transform="translate(-212 -7)"/>
</svg>
