<svg id="twitter.svg" xmlns="http://www.w3.org/2000/svg" width="25" height="25" viewBox="0 0 25 25">
  <defs>
    <style>
      .cls-1 {
        fill: #bfbfc0;
      }

      .cls-1, .cls-2 {
        fill-rule: evenodd;
      }

      .cls-2 {
        fill: #fff;
      }
    </style>
  </defs>
  <path id="fill" class="cls-1" d="M68,7.008H92.988V32H68V7.008Z" transform="translate(-68 -7)"/>
  <path id="icon" class="cls-2" d="M90.2,13.928a7.031,7.031,0,0,1-2.231.636,4.291,4.291,0,0,0,1.675-2.2,6.478,6.478,0,0,1-2.508.895h0a4.018,4.018,0,0,0-6.93,2.792,4.056,4.056,0,0,0,.1.9h0a11.121,11.121,0,0,1-8.292-4.194,4.055,4.055,0,0,0,1.22,5.34,2.577,2.577,0,0,1-1.757-.457,3.893,3.893,0,0,0,3.1,3.95,3.169,3.169,0,0,1-1.675.128,3.807,3.807,0,0,0,3.6,2.742,7.133,7.133,0,0,1-5.8,1.678,12.045,12.045,0,0,0,6.292,1.787,11.2,11.2,0,0,0,11.258-11.8c0-.007,0-0.014,0-0.022s0-.034,0-0.051,0-.04,0-0.06A6.957,6.957,0,0,0,90.2,13.928Z" transform="translate(-68 -7)"/>
</svg>
