<svg id="vk_hover.svg" xmlns="http://www.w3.org/2000/svg" width="25" height="25" viewBox="0 0 25 25">
  <defs>
    <style>
      .cls-1 {
        fill: #6996c7;
      }

      .cls-1, .cls-2 {
        fill-rule: evenodd;
      }

      .cls-2 {
        fill: #fff;
      }
    </style>
  </defs>
  <path id="fill" class="cls-1" d="M10,35.988H35V61.011H10V35.988Z" transform="translate(-10 -36)"/>
  <path id="icon" class="cls-2" d="M22.026,54.38h1.252a1.055,1.055,0,0,0,.572-0.252,0.929,0.929,0,0,0,.172-0.554s-0.025-1.692.755-1.942,1.756,1.636,2.8,2.359a1.975,1.975,0,0,0,1.393.428l2.8-.04s1.464-.091.769-1.25a9.4,9.4,0,0,0-2.081-2.424c-1.755-1.64-1.52-1.375.594-4.212,1.287-1.728,1.8-2.783,1.641-3.234a1.214,1.214,0,0,0-1.1-.317l-3.151.02a0.711,0.711,0,0,0-.407.072,0.887,0.887,0,0,0-.278.341A18.459,18.459,0,0,1,26.6,45.848c-1.4,2.4-1.964,2.526-2.193,2.377-0.534-.347-0.4-1.4-0.4-2.139,0-2.325.35-3.295-.682-3.546a5.373,5.373,0,0,0-1.471-.147,6.749,6.749,0,0,0-2.614.269c-0.358.177-.635,0.571-0.467,0.593a1.411,1.411,0,0,1,.93.471,3.079,3.079,0,0,1,.312,1.436S20.2,47.9,19.577,48.24c-0.425.233-1.007-.243-2.258-2.419a20.344,20.344,0,0,1-1.125-2.348,0.943,0.943,0,0,0-.26-0.354,1.3,1.3,0,0,0-.484-0.2l-2.994.02a1.015,1.015,0,0,0-.614.21,0.661,0.661,0,0,0-.012.537s2.344,5.523,5,8.306A7.162,7.162,0,0,0,22.026,54.38Z" transform="translate(-10 -36)"/>
</svg>
