<svg id="instagram_color.svg" xmlns="http://www.w3.org/2000/svg" width="28" height="28" viewBox="0 0 28 28">
  <defs>
    <style>
      .cls-1 {
        fill: #d6c9b5;
      }

      .cls-1, .cls-3, .cls-4 {
        fill-rule: evenodd;
      }

      .cls-2 {
        fill: #3b241b;
      }

      .cls-3 {
        fill: #5d4d48;
      }

      .cls-4 {
        fill: #3e362f;
      }
    </style>
  </defs>
  <path id="icon-2" class="cls-1" d="M659,105v2H642v-1h-1V96h1v4h1v2h1v1h1v1h1v1h2v1h5v-1h2v-1h1v-1h1v-1h1V96h2v9h-1Zm-5-6v1h-1v1h-1v1h-3v-1h-2V99h-1V96h1V95h1V94h1V93h3v1h1v1h1v2h1v1h-1v1Z" transform="translate(-637 -84)"/>
  <rect id="icon-1" class="cls-2" x="19" y="5" width="4" height="3"/>
  <path id="fill" class="cls-3" d="M662,106v3h-5v-1h4v-4h1v1h1v1h-1Zm-21,4v-1h2v-1h3v1h11v1H641Zm20-16h-3v1h-1v3h-1V94h-1V93h6V91h1v10h-1V94Zm-8-1V92h-5v1h-2v1h-1v7h-1V95h-3v1h-1V88h1V87h15v1h-1v1h-1v2h1v2h-2Z" transform="translate(-637 -84)"/>
  <path id="border" class="cls-4" d="M665,91v2h-1v10h-1v1h1v7h-5v1h-5v-1h-5v1H639v-2h-1v-1h-1v-2h1v-1h-1v-3h1V99h-1V95h1V93h-1V88h1V85h9V84h4v1h10v1h2v1h2v1h-1v3h1Zm-5-2h-4v3h4V89Zm2,2h-1v2h-6V91h-1V89h1V88h1V87H641v1h-1v8h1v10h1v1h17v-2h1V96h-2v6h-1v1h-1v1h-1v1h-2v1h-5v-1h-2v-1h-1v-1h-1v-1h-1v-2h-1V96h-1V95h3v6h1V94h1V93h2V92h5v1h2v1h1v4h1V95h1V94h3v7h1V91Zm-14,3v1h-1v1h-1v3h1v2h2v1h3v-1h1v-1h1V98h1V97h-1V95h-1V94h-1V93h-3v1h-1Zm14,11v-1h-1v4h-4v1H646v-1h-3v1h-2v1h16v-1h5v-3h1v-1h-1Z" transform="translate(-637 -84)"/>
</svg>
